SplineFontDB: 3.2
FontName: MLGamer's_monospace
FullName: MLGamer's monospace
FamilyName: MLGamer's monospace
Weight: Regular
Copyright: (C) Seriy MLGamer, 2020
UComments: "2020-4-12: Created with FontForge (http://fontforge.org)"
Version: 1.0
ItalicAngle: 0
UnderlinePosition: 50
UnderlineWidth: 62
Ascent: 800
Descent: 200
InvalidEm: 0
LayerCount: 2
Layer: 0 0 "Back" 1
Layer: 1 0 "Fore" 0
XUID: [1021 1004 -2098412171 12466]
StyleMap: 0x0001
FSType: 0
OS2Version: 0
OS2_WeightWidthSlopeOnly: 0
OS2_UseTypoMetrics: 1
CreationTime: 1586681345
ModificationTime: 1588778211
PfmFamily: 49
TTFWeight: 400
TTFWidth: 5
LineGap: 90
VLineGap: 0
OS2TypoAscent: 0
OS2TypoAOffset: 1
OS2TypoDescent: 0
OS2TypoDOffset: 1
OS2TypoLinegap: 90
OS2WinAscent: 0
OS2WinAOffset: 1
OS2WinDescent: 0
OS2WinDOffset: 1
HheadAscent: 0
HheadAOffset: 1
HheadDescent: 0
HheadDOffset: 1
OS2Vendor: 'PfEd'
MarkAttachClasses: 1
DEI: 91125
Encoding: iso8859-5
UnicodeInterp: none
NameList: AGL For New Fonts
DisplaySize: -48
AntiAlias: 1
FitToEm: 0
WinInfo: 160 16 6
BeginPrivate: 0
EndPrivate
Grid
-513.5 1300 m 0
 -513.5 -700 l 1024
-833 1300 m 0
 -833 -700 l 1024
EndSplineSet
BeginChars: 256 172

StartChar: exclam
Encoding: 33 33 1
Width: 375
Flags: HW
LayerCount: 2
Fore
SplineSet
154 175 m 1
 212 175 l 1
 197 112 l 1
 140 112 l 1
 154 175 l 1
168 237 m 1
 270 675 l 1
 327 675 l 1
 226 237 l 1
 168 237 l 1
EndSplineSet
Validated: 1
EndChar

StartChar: quotedbl
Encoding: 34 34 2
Width: 375
Flags: HW
LayerCount: 2
Fore
SplineSet
257 487 m 25
 315 612 l 17
 329 675 l 1
 388 675 l 9
 373 612 l 25
 315 487 l 25
 257 487 l 25
213 675 m 1
 271 675 l 9
 257 612 l 25
 198 487 l 25
 141 487 l 9
 198 612 l 25
 213 675 l 1
EndSplineSet
Validated: 1
EndChar

StartChar: numbersign
Encoding: 35 35 3
Width: 375
Flags: HW
LayerCount: 2
Fore
SplineSet
227 456 m 25
 186 331 l 25
 244 331 l 25
 286 456 l 25
 227 456 l 25
171 112 m 29
 223 268 l 25
 165 268 l 25
 112 112 l 25
 55 112 l 25
 107 268 l 25
 62 268 l 17
 76 331 l 1
 128 331 l 1
 169 456 l 25
 105 456 l 17
 120 518 l 1
 190 518 l 1
 242 675 l 1
 301 675 l 9
 248 518 l 25
 307 518 l 25
 359 675 l 25
 417 675 l 25
 364 518 l 25
 410 518 l 25
 395 456 l 25
 343 456 l 25
 302 331 l 25
 367 331 l 25
 352 268 l 25
 281 268 l 25
 229 112 l 25
 171 112 l 29
EndSplineSet
Validated: 1
EndChar

StartChar: dollar
Encoding: 36 36 4
Width: 375
Flags: HW
CounterMasks: 1 fc
LayerCount: 2
Fore
SplineSet
214 175 m 29
 243 175 l 25
 280 206 l 25
 309 331 l 25
 286 362 l 25
 257 362 l 25
 214 175 l 29
258 612 m 25
 228 612 l 25
 192 581 l 25
 163 456 l 25
 185 425 l 25
 214 425 l 25
 258 612 l 25
272 675 m 1
 301 800 l 1
 359 800 l 9
 330 675 l 25
 388 675 l 25
 431 612 l 25
 403 487 l 25
 345 487 l 25
 367 581 l 25
 344 612 l 25
 315 612 l 25
 272 425 l 25
 331 425 l 25
 374 362 l 25
 331 175 l 25
 258 112 l 25
 200 112 l 25
 171 -13 l 25
 113 -13 l 25
 142 112 l 25
 84 112 l 25
 40 175 l 25
 69 300 l 25
 127 300 l 25
 105 206 l 25
 127 175 l 25
 157 175 l 25
 200 362 l 25
 141 362 l 25
 98 425 l 25
 141 612 l 25
 213 675 l 25
 272 675 l 1
EndSplineSet
Validated: 1
EndChar

StartChar: percent
Encoding: 37 37 5
Width: 375
Flags: HW
LayerCount: 2
Fore
SplineSet
309 206 m 29
 250 206 l 29
 236 143 l 29
 294 143 l 29
 309 206 l 29
257 237 m 29
 316 237 l 29
 338 206 l 29
 323 143 l 29
 287 112 l 29
 229 112 l 29
 207 143 l 29
 221 206 l 29
 257 237 l 29
235 643 m 29
 177 643 l 29
 163 581 l 29
 221 581 l 29
 235 643 l 29
185 675 m 29
 242 675 l 29
 265 643 l 29
 250 581 l 29
 213 550 l 29
 156 550 l 29
 134 581 l 29
 148 643 l 29
 185 675 l 29
26 112 m 29
 388 675 l 29
 446 675 l 29
 84 112 l 29
 26 112 l 29
EndSplineSet
Validated: 1
EndChar

StartChar: ampersand
Encoding: 38 38 6
Width: 375
Flags: HW
LayerCount: 2
Fore
SplineSet
189 378 m 25
 134 331 l 25
 105 206 l 25
 127 175 l 25
 243 175 l 25
 280 206 l 25
 287 237 l 25
 189 378 l 25
156 425 m 25
 112 487 l 25
 141 612 l 25
 213 675 l 25
 301 675 l 25
 344 612 l 25
 315 487 l 25
 243 425 l 25
 309 331 l 25
 331 425 l 25
 388 425 l 25
 352 268 l 25
 396 206 l 1
 389 175 l 25
 331 175 l 1
 258 112 l 25
 84 112 l 25
 40 175 l 25
 84 362 l 25
 156 425 l 25
258 612 m 25
 228 612 l 25
 192 581 l 25
 177 518 l 25
 199 487 l 25
 229 487 l 25
 265 518 l 25
 279 581 l 25
 258 612 l 25
EndSplineSet
Validated: 1
EndChar

StartChar: quotesingle
Encoding: 39 39 7
Width: 375
Flags: HW
LayerCount: 2
Fore
SplineSet
270 675 m 29
 328 675 l 25
 313 612 l 25
 256 487 l 25
 197 487 l 25
 256 612 l 25
 270 675 l 29
EndSplineSet
Validated: 1
EndChar

StartChar: parenleft
Encoding: 40 40 8
Width: 375
Flags: HW
LayerCount: 2
Fore
SplineSet
329 675 m 25
 387 675 l 25
 256 487 l 25
 199 362 l 25
 155 175 l 25
 155 50 l 25
 199 -138 l 25
 141 -138 l 25
 97 50 l 25
 97 175 l 25
 140 362 l 25
 198 487 l 25
 329 675 l 25
EndSplineSet
Validated: 1
EndChar

StartChar: parenright
Encoding: 41 41 9
Width: 375
Flags: HW
LayerCount: 2
Fore
SplineSet
212 675 m 29
 271 675 l 25
 314 487 l 25
 315 362 l 25
 272 175 l 25
 213 50 l 25
 83 -138 l 25
 25 -138 l 25
 155 50 l 25
 213 175 l 25
 256 362 l 25
 256 487 l 25
 212 675 l 29
EndSplineSet
Validated: 1
EndChar

StartChar: asterisk
Encoding: 42 42 10
Width: 375
Flags: HW
LayerCount: 2
Fore
SplineSet
272 675 m 25
 330 675 l 25
 308 581 l 25
 439 643 l 25
 424 581 l 25
 294 518 l 25
 395 456 l 25
 381 393 l 25
 279 456 l 25
 257 362 l 25
 200 362 l 25
 222 456 l 25
 91 393 l 25
 105 456 l 25
 236 518 l 25
 134 581 l 25
 148 643 l 25
 250 581 l 25
 272 675 l 25
EndSplineSet
Validated: 1
EndChar

StartChar: plus
Encoding: 43 43 11
Width: 375
Flags: HW
LayerCount: 2
Fore
SplineSet
142 112 m 25
 171 237 l 25
 55 237 l 25
 69 300 l 25
 186 300 l 25
 214 425 l 25
 272 425 l 25
 243 300 l 25
 359 300 l 25
 345 237 l 25
 229 237 l 25
 200 112 l 25
 142 112 l 25
EndSplineSet
Validated: 1
EndChar

StartChar: comma
Encoding: 44 44 12
Width: 375
Flags: HW
LayerCount: 2
Fore
SplineSet
155 175 m 29
 213 175 l 29
 199 112 l 29
 112 -13 l 29
 53 -13 l 29
 141 112 l 29
 155 175 l 29
EndSplineSet
Validated: 1
EndChar

StartChar: hyphen
Encoding: 45 45 13
Width: 375
Flags: HW
LayerCount: 2
Fore
SplineSet
55 237 m 5
 69 300 l 5
 359 300 l 5
 345 237 l 5
 55 237 l 5
EndSplineSet
Validated: 1
EndChar

StartChar: period
Encoding: 46 46 14
Width: 375
Flags: HW
LayerCount: 2
Fore
SplineSet
154 175 m 29
 212 175 l 29
 197 112 l 29
 140 112 l 29
 154 175 l 29
EndSplineSet
Validated: 1
EndChar

StartChar: slash
Encoding: 47 47 15
Width: 375
Flags: HW
LayerCount: 2
Fore
SplineSet
26 112 m 25
 388 675 l 25
 446 675 l 25
 84 112 l 25
 26 112 l 25
EndSplineSet
Validated: 1
EndChar

StartChar: zero
Encoding: 48 48 16
Width: 375
Flags: HW
CounterMasks: 1 fc
LayerCount: 2
Fore
SplineSet
214 425 m 25
 272 425 l 25
 257 362 l 25
 200 362 l 25
 214 425 l 25
344 612 m 25
 228 612 l 25
 192 581 l 25
 105 206 l 25
 127 175 l 25
 243 175 l 25
 280 206 l 25
 367 581 l 25
 344 612 l 25
213 675 m 25
 388 675 l 25
 431 612 l 25
 331 175 l 25
 258 112 l 25
 84 112 l 25
 40 175 l 25
 141 612 l 25
 213 675 l 25
EndSplineSet
Validated: 1
EndChar

StartChar: one
Encoding: 49 49 17
Width: 375
Flags: HW
LayerCount: 2
Fore
SplineSet
272 675 m 1
 330 675 l 25
 200 112 l 25
 142 112 l 25
 250 581 l 1
 177 518 l 1
 120 518 l 1
 127 550 l 1
 272 675 l 1
EndSplineSet
Validated: 1
EndChar

StartChar: two
Encoding: 50 50 18
Width: 375
Flags: HW
LayerCount: 2
Fore
SplineSet
98 175 m 1
 331 175 l 25
 316 112 l 25
 26 112 l 25
 48 206 l 25
 338 456 l 25
 367 581 l 25
 344 612 l 25
 228 612 l 1
 192 581 l 1
 170 487 l 1
 112 487 l 1
 141 612 l 25
 213 675 l 25
 388 675 l 25
 431 612 l 25
 388 425 l 17
 98 175 l 1
EndSplineSet
Validated: 1
EndChar

StartChar: three
Encoding: 51 51 19
Width: 375
Flags: HW
CounterMasks: 1 e0
LayerCount: 2
Fore
SplineSet
213 675 m 29
 388 675 l 25
 431 612 l 25
 388 425 l 25
 352 393 l 25
 374 362 l 25
 331 175 l 25
 258 112 l 25
 84 112 l 25
 40 175 l 25
 69 300 l 25
 127 300 l 25
 105 206 l 25
 127 175 l 25
 243 175 l 25
 280 206 l 25
 309 331 l 25
 286 362 l 25
 200 362 l 25
 214 425 l 25
 301 425 l 25
 338 456 l 25
 367 581 l 25
 344 612 l 25
 228 612 l 25
 192 581 l 25
 170 487 l 25
 112 487 l 25
 141 612 l 25
 213 675 l 29
EndSplineSet
Validated: 1
EndChar

StartChar: four
Encoding: 52 52 20
Width: 375
Flags: HW
LayerCount: 2
Fore
SplineSet
301 550 m 29
 127 300 l 25
 243 300 l 25
 301 550 l 29
330 675 m 25
 388 675 l 25
 302 300 l 25
 359 300 l 25
 345 237 l 25
 287 237 l 25
 258 112 l 25
 200 112 l 25
 229 237 l 25
 55 237 l 25
 69 300 l 25
 330 675 l 25
EndSplineSet
Validated: 1
EndChar

StartChar: five
Encoding: 53 53 21
Width: 375
Flags: HW
CounterMasks: 1 e0
LayerCount: 2
Fore
SplineSet
446 675 m 25
 431 612 l 25
 199 612 l 25
 156 425 l 25
 331 425 l 25
 374 362 l 25
 331 175 l 25
 258 112 l 25
 84 112 l 25
 40 175 l 25
 69 300 l 25
 127 300 l 25
 105 206 l 25
 127 175 l 25
 243 175 l 25
 280 206 l 25
 309 331 l 25
 286 362 l 25
 84 362 l 25
 156 675 l 25
 446 675 l 25
EndSplineSet
Validated: 1
EndChar

StartChar: six
Encoding: 54 54 22
Width: 375
Flags: HW
CounterMasks: 1 e0
LayerCount: 2
Fore
SplineSet
286 362 m 29
 170 362 l 29
 134 331 l 29
 105 206 l 29
 127 175 l 29
 243 175 l 29
 280 206 l 29
 309 331 l 29
 286 362 l 29
213 675 m 29
 388 675 l 29
 431 612 l 29
 403 487 l 29
 345 487 l 29
 367 581 l 29
 344 612 l 29
 228 612 l 29
 192 581 l 29
 148 393 l 29
 185 425 l 29
 331 425 l 29
 374 362 l 29
 331 175 l 29
 258 112 l 29
 90 112 l 29
 40 175 l 29
 141 612 l 29
 213 675 l 29
EndSplineSet
Validated: 1
EndChar

StartChar: seven
Encoding: 55 55 23
Width: 375
Flags: HW
LayerCount: 2
Fore
SplineSet
156 675 m 29
 446 675 l 25
 431 612 l 25
 84 112 l 25
 26 112 l 25
 374 612 l 25
 141 612 l 25
 156 675 l 29
EndSplineSet
Validated: 1
EndChar

StartChar: eight
Encoding: 56 56 24
Width: 375
Flags: HW
CounterMasks: 1 e0
LayerCount: 2
Fore
SplineSet
286 362 m 25
 170 362 l 25
 134 331 l 25
 105 206 l 25
 127 175 l 25
 243 175 l 25
 280 206 l 25
 309 331 l 25
 286 362 l 25
343 612 m 25
 228 612 l 25
 192 581 l 25
 163 456 l 25
 185 425 l 25
 304 425 l 25
 338 456 l 25
 367 581 l 25
 343 612 l 25
213 675 m 25
 388 675 l 25
 431 612 l 25
 388 425 l 25
 352 393 l 25
 374 362 l 25
 331 175 l 25
 258 112 l 25
 84 112 l 25
 40 175 l 25
 84 362 l 25
 120 393 l 25
 98 425 l 25
 141 612 l 25
 213 675 l 25
EndSplineSet
Validated: 1
EndChar

StartChar: nine
Encoding: 57 57 25
Width: 375
Flags: HW
CounterMasks: 1 e0
LayerCount: 2
Fore
SplineSet
185 425 m 25
 301 425 l 25
 338 456 l 25
 367 581 l 25
 344 612 l 25
 228 612 l 25
 192 581 l 25
 163 456 l 25
 185 425 l 25
258 112 m 25
 84 112 l 25
 40 175 l 25
 69 300 l 25
 127 300 l 25
 105 206 l 25
 127 175 l 25
 243 175 l 25
 280 206 l 25
 323 394 l 25
 286 362 l 25
 141 362 l 25
 98 425 l 25
 141 612 l 25
 213 675 l 25
 382 675 l 25
 431 612 l 25
 331 175 l 25
 258 112 l 25
EndSplineSet
Validated: 1
EndChar

StartChar: colon
Encoding: 58 58 26
Width: 375
Flags: HW
LayerCount: 2
Fore
SplineSet
212 425 m 29
 270 425 l 29
 255 362 l 29
 197 362 l 29
 212 425 l 29
154 175 m 29
 212 175 l 29
 197 112 l 29
 140 112 l 29
 154 175 l 29
EndSplineSet
Validated: 1
EndChar

StartChar: semicolon
Encoding: 59 59 27
Width: 375
Flags: HW
LayerCount: 2
Fore
SplineSet
155 175 m 25
 213 175 l 25
 199 112 l 25
 112 -13 l 25
 53 -13 l 25
 141 112 l 25
 155 175 l 25
213 425 m 25
 271 425 l 25
 256 362 l 25
 199 362 l 25
 213 425 l 25
EndSplineSet
Validated: 1
EndChar

StartChar: less
Encoding: 60 60 28
Width: 375
Flags: HW
LayerCount: 2
Fore
SplineSet
316 112 m 25
 55 237 l 25
 69 300 l 25
 388 425 l 25
 374 362 l 25
 134 268 l 25
 331 175 l 25
 316 112 l 25
EndSplineSet
Validated: 1
EndChar

StartChar: equal
Encoding: 61 61 29
Width: 375
Flags: HW
LayerCount: 2
Fore
SplineSet
69 300 m 1
 84 362 l 1
 374 362 l 1
 359 300 l 1
 69 300 l 1
40 175 m 1
 55 237 l 1
 345 237 l 1
 331 175 l 1
 40 175 l 1
EndSplineSet
Validated: 1
EndChar

StartChar: greater
Encoding: 62 62 30
Width: 375
Flags: HW
LayerCount: 2
Fore
SplineSet
98 425 m 29
 359 300 l 29
 345 237 l 29
 26 112 l 29
 40 175 l 29
 279 268 l 29
 84 362 l 29
 98 425 l 29
EndSplineSet
Validated: 1
EndChar

StartChar: question
Encoding: 63 63 31
Width: 375
Flags: HW
CounterMasks: 1 38
LayerCount: 2
Fore
SplineSet
157 175 m 25
 214 175 l 25
 200 112 l 25
 142 112 l 25
 157 175 l 25
229 237 m 25
 171 237 l 25
 193 331 l 25
 338 456 l 25
 367 581 l 25
 344 612 l 25
 228 612 l 1
 192 581 l 1
 170 487 l 1
 112 487 l 1
 141 612 l 25
 213 675 l 25
 388 675 l 25
 431 612 l 25
 388 425 l 17
 243 300 l 1
 229 237 l 25
EndSplineSet
Validated: 1
EndChar

StartChar: at
Encoding: 64 64 32
Width: 375
Flags: HW
CounterMasks: 1 1c
LayerCount: 2
Fore
SplineSet
331 175 m 25
 258 112 l 25
 84 112 l 25
 40 175 l 25
 144 622 l 25
 213 675 l 25
 388 675 l 25
 431 612 l 25
 359 300 l 25
 287 237 l 25
 229 237 l 25
 186 300 l 25
 214 425 l 25
 272 425 l 25
 250 331 l 25
 272 300 l 25
 309 331 l 25
 367 581 l 25
 344 612 l 25
 228 612 l 25
 192 581 l 25
 105 206 l 25
 127 175 l 25
 331 175 l 25
EndSplineSet
Validated: 1
EndChar

StartChar: A
Encoding: 65 65 33
Width: 375
Flags: HW
LayerCount: 2
Fore
SplineSet
266 425 m 25
 268 534 l 25
 220 425 l 25
 266 425 l 25
26 112 m 25
 272 675 l 25
 330 675 l 25
 316 112 l 25
 258 112 l 25
 264 362 l 25
 193 362 l 25
 84 112 l 25
 26 112 l 25
EndSplineSet
Validated: 1
EndChar

StartChar: uni0417
Encoding: 183 1047 34
Width: 375
Flags: HW
CounterMasks: 1 e0
LayerCount: 2
Fore
SplineSet
213 675 m 29
 388 675 l 25
 431 612 l 25
 388 425 l 25
 352 393 l 25
 374 362 l 25
 331 175 l 25
 258 112 l 25
 84 112 l 25
 40 175 l 25
 69 300 l 25
 127 300 l 25
 105 206 l 25
 127 175 l 25
 243 175 l 25
 280 206 l 25
 309 331 l 25
 286 362 l 25
 200 362 l 25
 214 425 l 25
 301 425 l 25
 338 456 l 25
 367 581 l 25
 344 612 l 25
 228 612 l 25
 192 581 l 25
 170 487 l 25
 112 487 l 25
 141 612 l 25
 213 675 l 29
EndSplineSet
Validated: 1
EndChar

StartChar: B
Encoding: 66 66 35
Width: 375
Flags: HW
CounterMasks: 1 e0
LayerCount: 2
Fore
SplineSet
286 362 m 29
 141 362 l 25
 98 175 l 25
 243 175 l 25
 280 206 l 25
 309 331 l 25
 286 362 l 29
344 612 m 25
 199 612 l 25
 156 425 l 25
 301 425 l 25
 338 456 l 25
 367 581 l 25
 344 612 l 25
156 675 m 25
 388 675 l 25
 431 612 l 25
 388 425 l 25
 352 393 l 25
 374 362 l 25
 331 175 l 25
 258 112 l 25
 26 112 l 25
 156 675 l 25
EndSplineSet
Validated: 1
EndChar

StartChar: C
Encoding: 67 67 36
Width: 375
Flags: HW
LayerCount: 2
Fore
SplineSet
388 675 m 29
 431 612 l 29
 403 487 l 29
 345 487 l 29
 367 581 l 29
 344 612 l 29
 228 612 l 29
 192 581 l 29
 105 206 l 29
 127 175 l 29
 243 175 l 29
 280 206 l 29
 302 300 l 29
 359 300 l 29
 331 175 l 29
 258 112 l 29
 84 112 l 29
 40 175 l 29
 141 612 l 29
 213 675 l 29
 388 675 l 29
EndSplineSet
Validated: 1
EndChar

StartChar: D
Encoding: 68 68 37
Width: 375
Flags: HW
LayerCount: 2
Fore
SplineSet
367 581 m 25
 344 612 l 25
 199 612 l 25
 98 175 l 25
 243 175 l 25
 280 206 l 25
 367 581 l 25
331 175 m 25
 258 112 l 25
 26 112 l 25
 156 675 l 25
 388 675 l 25
 431 612 l 25
 331 175 l 25
EndSplineSet
Validated: 1
EndChar

StartChar: E
Encoding: 69 69 38
Width: 375
Flags: HW
CounterMasks: 1 e0
LayerCount: 2
Fore
SplineSet
156 675 m 25
 446 675 l 25
 431 612 l 25
 199 612 l 25
 156 425 l 25
 388 425 l 25
 374 362 l 25
 141 362 l 25
 98 175 l 25
 331 175 l 25
 316 112 l 25
 26 112 l 25
 156 675 l 25
EndSplineSet
Validated: 1
EndChar

StartChar: F
Encoding: 70 70 39
Width: 375
Flags: HW
LayerCount: 2
Fore
SplineSet
84 112 m 25
 26 112 l 25
 156 675 l 25
 446 675 l 25
 431 612 l 25
 199 612 l 25
 156 425 l 25
 388 425 l 25
 374 362 l 25
 141 362 l 25
 84 112 l 25
EndSplineSet
Validated: 1
EndChar

StartChar: G
Encoding: 71 71 40
Width: 375
Flags: HW
CounterMasks: 1 e0
LayerCount: 2
Fore
SplineSet
331 175 m 29
 258 112 l 25
 84 112 l 25
 40 175 l 25
 141 612 l 25
 213 675 l 25
 388 675 l 25
 431 612 l 25
 403 487 l 25
 345 487 l 25
 367 581 l 25
 344 612 l 25
 228 612 l 25
 192 581 l 25
 105 206 l 25
 127 175 l 25
 243 175 l 25
 280 206 l 25
 316 362 l 25
 200 362 l 25
 214 425 l 25
 388 425 l 25
 331 175 l 29
EndSplineSet
Validated: 1
EndChar

StartChar: H
Encoding: 72 72 41
Width: 375
Flags: HW
LayerCount: 2
Fore
SplineSet
156 675 m 29
 213 675 l 25
 156 425 l 25
 331 425 l 25
 388 675 l 25
 446 675 l 25
 316 112 l 25
 258 112 l 25
 316 362 l 25
 141 362 l 25
 84 112 l 25
 26 112 l 25
 156 675 l 29
EndSplineSet
Validated: 1
EndChar

StartChar: I
Encoding: 73 73 42
Width: 375
Flags: HW
LayerCount: 2
Fore
SplineSet
255 612 m 25
 313 612 l 25
 197 112 l 25
 140 112 l 25
 255 612 l 25
EndSplineSet
Validated: 1
EndChar

StartChar: J
Encoding: 74 74 43
Width: 375
Flags: HW
LayerCount: 2
Fore
SplineSet
388 675 m 29
 446 675 l 25
 331 175 l 25
 258 112 l 25
 84 112 l 25
 40 175 l 25
 69 300 l 25
 127 300 l 25
 105 206 l 25
 127 175 l 25
 243 175 l 25
 280 206 l 25
 388 675 l 29
EndSplineSet
Validated: 1
EndChar

StartChar: K
Encoding: 75 75 44
Width: 375
Flags: HW
LayerCount: 2
Fore
SplineSet
156 675 m 29
 213 675 l 29
 163 456 l 29
 417 675 l 25
 446 675 l 25
 431 612 l 25
 177 393 l 25
 331 175 l 25
 316 112 l 25
 287 112 l 25
 134 331 l 29
 84 112 l 29
 26 112 l 29
 156 675 l 29
EndSplineSet
Validated: 1
EndChar

StartChar: uni0410
Encoding: 176 1040 45
Width: 375
Flags: HW
LayerCount: 2
Fore
SplineSet
266 425 m 25
 268 534 l 25
 220 425 l 25
 266 425 l 25
26 112 m 25
 272 675 l 25
 328 675 l 25
 316 112 l 25
 258 112 l 25
 264 362 l 25
 193 362 l 25
 84 112 l 25
 26 112 l 25
EndSplineSet
Validated: 1
EndChar

StartChar: uni0412
Encoding: 178 1042 46
Width: 375
Flags: HW
CounterMasks: 1 e0
LayerCount: 2
Fore
SplineSet
286 362 m 29
 141 362 l 25
 98 175 l 25
 243 175 l 25
 280 206 l 25
 309 331 l 25
 286 362 l 29
344 612 m 25
 199 612 l 25
 156 425 l 25
 301 425 l 25
 338 456 l 25
 367 581 l 25
 344 612 l 25
156 675 m 25
 388 675 l 25
 431 612 l 25
 388 425 l 25
 352 393 l 25
 374 362 l 25
 331 175 l 25
 258 112 l 25
 26 112 l 25
 156 675 l 25
EndSplineSet
Validated: 1
EndChar

StartChar: uni0421
Encoding: 193 1057 47
Width: 375
Flags: HW
LayerCount: 2
Fore
SplineSet
388 675 m 29
 431 612 l 29
 403 487 l 29
 345 487 l 29
 367 581 l 29
 344 612 l 29
 228 612 l 29
 192 581 l 29
 105 206 l 29
 127 175 l 29
 243 175 l 29
 280 206 l 29
 302 300 l 29
 359 300 l 29
 331 175 l 29
 258 112 l 29
 84 112 l 29
 40 175 l 29
 141 612 l 29
 213 675 l 29
 388 675 l 29
EndSplineSet
Validated: 1
EndChar

StartChar: uni0415
Encoding: 181 1045 48
Width: 375
Flags: HW
CounterMasks: 1 e0
LayerCount: 2
Fore
SplineSet
156 675 m 25
 446 675 l 25
 431 612 l 25
 199 612 l 25
 156 425 l 25
 388 425 l 25
 374 362 l 25
 141 362 l 25
 98 175 l 25
 331 175 l 25
 316 112 l 25
 26 112 l 25
 156 675 l 25
EndSplineSet
Validated: 1
EndChar

StartChar: uni041D
Encoding: 189 1053 49
Width: 375
Flags: HW
LayerCount: 2
Fore
SplineSet
156 675 m 29
 213 675 l 25
 156 425 l 25
 331 425 l 25
 388 675 l 25
 446 675 l 25
 316 112 l 25
 258 112 l 25
 316 362 l 25
 141 362 l 25
 84 112 l 25
 26 112 l 25
 156 675 l 29
EndSplineSet
Validated: 1
EndChar

StartChar: O
Encoding: 79 79 50
Width: 375
Flags: HW
LayerCount: 2
Fore
SplineSet
344 612 m 25
 228 612 l 25
 192 581 l 25
 105 206 l 25
 127 175 l 25
 243 175 l 25
 280 206 l 25
 367 581 l 25
 344 612 l 25
213 675 m 25
 388 675 l 25
 431 612 l 25
 331 175 l 25
 258 112 l 25
 84 112 l 25
 40 175 l 25
 141 612 l 25
 213 675 l 25
EndSplineSet
Validated: 1
EndChar

StartChar: uni041E
Encoding: 190 1054 51
Width: 375
Flags: HW
LayerCount: 2
Fore
SplineSet
344 612 m 25
 228 612 l 25
 192 581 l 25
 105 206 l 25
 127 175 l 25
 243 175 l 25
 280 206 l 25
 367 581 l 25
 344 612 l 25
213 675 m 25
 388 675 l 25
 431 612 l 25
 331 175 l 25
 258 112 l 25
 84 112 l 25
 40 175 l 25
 141 612 l 25
 213 675 l 25
EndSplineSet
Validated: 1
EndChar

StartChar: uni041A
Encoding: 186 1050 52
Width: 375
Flags: HW
LayerCount: 2
Fore
SplineSet
156 675 m 25
 213 675 l 25
 170 487 l 25
 388 675 l 25
 446 675 l 25
 439 643 l 25
 148 393 l 25
 323 143 l 25
 316 112 l 25
 258 112 l 25
 127 300 l 25
 84 112 l 25
 26 112 l 25
 156 675 l 25
EndSplineSet
Validated: 1
EndChar

StartChar: L
Encoding: 76 76 53
Width: 375
Flags: HW
LayerCount: 2
Fore
SplineSet
156 675 m 29
 213 675 l 25
 98 175 l 25
 331 175 l 25
 316 112 l 25
 26 112 l 25
 156 675 l 29
EndSplineSet
Validated: 1
EndChar

StartChar: M
Encoding: 77 77 54
Width: 375
Flags: HW
LayerCount: 2
Fore
SplineSet
156 675 m 29
 213 675 l 29
 203 253 l 29
 388 675 l 29
 446 675 l 29
 316 112 l 29
 258 112 l 29
 323 393 l 29
 200 112 l 29
 142 112 l 29
 148 393 l 29
 84 112 l 29
 26 112 l 29
 156 675 l 29
EndSplineSet
Validated: 1
EndChar

StartChar: uni0401
Encoding: 161 1025 55
Width: 375
Flags: HW
LayerCount: 2
Fore
SplineSet
359 800 m 25xf2
 417 800 l 25
 403 737 l 25
 344 737 l 25
 359 800 l 25xf2
242 800 m 25xf6
 301 800 l 25
 286 737 l 25
 228 737 l 25
 242 800 l 25xf6
156 675 m 25xfa
 446 675 l 25
 431 612 l 25
 199 612 l 25
 156 425 l 25
 388 425 l 25
 374 362 l 25
 141 362 l 25
 98 175 l 25
 331 175 l 25
 316 112 l 25
 26 112 l 25
 156 675 l 25xfa
EndSplineSet
Validated: 1
EndChar

StartChar: uni041C
Encoding: 188 1052 56
Width: 375
Flags: HW
LayerCount: 2
Fore
SplineSet
156 675 m 29
 213 675 l 25
 203 253 l 25
 388 675 l 25
 446 675 l 25
 316 112 l 25
 258 112 l 25
 323 393 l 25
 200 112 l 25
 142 112 l 25
 148 393 l 25
 84 112 l 25
 26 112 l 25
 156 675 l 29
EndSplineSet
Validated: 1
EndChar

StartChar: N
Encoding: 78 78 57
Width: 375
Flags: HW
LayerCount: 2
Fore
SplineSet
156 675 m 29
 213 675 l 25
 291 253 l 25
 388 675 l 25
 446 675 l 25
 316 112 l 25
 258 112 l 25
 181 534 l 25
 84 112 l 25
 26 112 l 25
 156 675 l 29
EndSplineSet
Validated: 1
EndChar

StartChar: uni0418
Encoding: 184 1048 58
Width: 375
Flags: HW
LayerCount: 2
Fore
SplineSet
446 675 m 25
 316 112 l 25
 258 112 l 25
 356 534 l 25
 84 112 l 25
 26 112 l 25
 156 675 l 25
 213 675 l 25
 116 253 l 25
 388 675 l 25
 446 675 l 25
EndSplineSet
Validated: 1
EndChar

StartChar: uni0419
Encoding: 185 1049 59
Width: 375
Flags: HW
LayerCount: 2
Fore
SplineSet
242 800 m 29
 417 800 l 29
 403 737 l 29
 228 737 l 29
 242 800 l 29
446 675 m 25
 316 112 l 25
 258 112 l 25
 356 534 l 25
 84 112 l 25
 26 112 l 25
 156 675 l 25
 213 675 l 25
 116 253 l 25
 388 675 l 25
 446 675 l 25
EndSplineSet
Validated: 1
EndChar

StartChar: P
Encoding: 80 80 60
Width: 375
Flags: HW
LayerCount: 2
Fore
SplineSet
344 612 m 25
 199 612 l 25
 156 425 l 25
 301 425 l 25
 338 456 l 25
 367 581 l 25
 344 612 l 25
156 675 m 25
 388 675 l 25
 431 612 l 25
 388 425 l 25
 316 362 l 25
 141 362 l 25
 84 112 l 25
 26 112 l 25
 156 675 l 25
EndSplineSet
Validated: 1
EndChar

StartChar: uni0420
Encoding: 192 1056 61
Width: 375
Flags: HW
LayerCount: 2
Fore
SplineSet
344 612 m 25
 199 612 l 25
 156 425 l 25
 301 425 l 25
 338 456 l 25
 367 581 l 25
 344 612 l 25
156 675 m 25
 388 675 l 25
 431 612 l 25
 388 425 l 25
 316 362 l 25
 141 362 l 25
 84 112 l 25
 26 112 l 25
 156 675 l 25
EndSplineSet
Validated: 1
EndChar

StartChar: Q
Encoding: 81 81 62
Width: 375
Flags: HW
LayerCount: 2
Fore
SplineSet
344 612 m 25
 228 612 l 25
 192 581 l 25
 105 206 l 25
 127 175 l 25
 214 175 l 25
 193 206 l 25
 200 237 l 25
 257 237 l 25
 280 206 l 25
 367 581 l 25
 344 612 l 25
213 675 m 25
 388 675 l 25
 431 612 l 25
 331 175 l 1
 312 159 l 1
 367 81 l 1
 360 50 l 25
 302 50 l 25
 258 112 l 25
 84 112 l 25
 40 175 l 25
 142 616 l 25
 213 675 l 25
EndSplineSet
Validated: 1
EndChar

StartChar: R
Encoding: 82 82 63
Width: 375
Flags: HW
LayerCount: 2
Fore
SplineSet
199 612 m 29
 156 425 l 29
 301 425 l 29
 338 456 l 29
 367 581 l 29
 344 612 l 29
 199 612 l 29
156 675 m 29
 388 675 l 29
 431 612 l 29
 388 425 l 29
 316 362 l 29
 170 362 l 29
 323 143 l 29
 316 112 l 29
 258 112 l 29
 127 300 l 29
 84 112 l 29
 26 112 l 29
 156 675 l 29
EndSplineSet
Validated: 1
EndChar

StartChar: uni042F
Encoding: 207 1071 64
Width: 375
Flags: HW
LayerCount: 2
Fore
SplineSet
374 612 m 25
 229 612 l 25
 192 581 l 25
 163 456 l 25
 186 425 l 25
 331 425 l 25
 374 612 l 25
446 675 m 25
 316 112 l 25
 258 112 l 25
 302 300 l 25
 84 112 l 25
 26 112 l 25
 33 143 l 25
 287 362 l 25
 141 362 l 25
 98 425 l 25
 141 612 l 25
 213 675 l 25
 446 675 l 25
EndSplineSet
Validated: 1
EndChar

StartChar: S
Encoding: 83 83 65
Width: 375
Flags: HW
CounterMasks: 1 e0
LayerCount: 2
Fore
SplineSet
213 675 m 25
 388 675 l 25
 431 612 l 25
 403 487 l 25
 345 487 l 25
 367 581 l 25
 344 612 l 25
 228 612 l 25
 192 581 l 25
 163 456 l 25
 185 425 l 25
 331 425 l 25
 374 362 l 25
 331 175 l 25
 258 112 l 25
 84 112 l 25
 40 175 l 25
 69 300 l 25
 127 300 l 25
 105 206 l 25
 127 175 l 25
 243 175 l 25
 280 206 l 25
 309 331 l 25
 286 362 l 25
 141 362 l 25
 98 425 l 25
 141 612 l 25
 213 675 l 25
EndSplineSet
Validated: 1
EndChar

StartChar: T
Encoding: 84 84 66
Width: 375
Flags: HW
LayerCount: 2
Fore
SplineSet
156 675 m 25
 446 675 l 25
 431 612 l 25
 315 612 l 25
 200 112 l 25
 142 112 l 25
 258 612 l 25
 141 612 l 25
 156 675 l 25
EndSplineSet
Validated: 1
EndChar

StartChar: uni0422
Encoding: 194 1058 67
Width: 375
Flags: HW
LayerCount: 2
Fore
SplineSet
156 675 m 25
 446 675 l 25
 431 612 l 25
 315 612 l 25
 200 112 l 25
 142 112 l 25
 258 612 l 25
 141 612 l 25
 156 675 l 25
EndSplineSet
Validated: 1
EndChar

StartChar: U
Encoding: 85 85 68
Width: 375
Flags: HW
LayerCount: 2
Fore
SplineSet
446 675 m 25
 331 175 l 25
 258 112 l 25
 84 112 l 25
 40 175 l 25
 156 675 l 25
 213 675 l 25
 105 206 l 25
 127 175 l 25
 243 175 l 25
 280 206 l 25
 388 675 l 25
 446 675 l 25
EndSplineSet
Validated: 1
EndChar

StartChar: V
Encoding: 86 86 69
Width: 375
Flags: HW
LayerCount: 2
Fore
SplineSet
203 253 m 17
 388 675 l 25
 446 675 l 1
 200 112 l 25
 142 112 l 25
 156 675 l 25
 213 675 l 25
 203 253 l 17
EndSplineSet
Validated: 1
EndChar

StartChar: W
Encoding: 87 87 70
Width: 375
Flags: HW
LayerCount: 2
Fore
SplineSet
26 112 m 25
 156 675 l 25
 213 675 l 25
 149 394 l 25
 272 675 l 25
 330 675 l 25
 323 394 l 25
 388 675 l 25
 446 675 l 25
 316 112 l 25
 258 112 l 25
 268 534 l 25
 84 112 l 25
 26 112 l 25
EndSplineSet
Validated: 1
EndChar

StartChar: X
Encoding: 88 88 71
Width: 375
Flags: HW
LayerCount: 2
Fore
SplineSet
156 675 m 29
 213 675 l 25
 247 440 l 25
 388 675 l 25
 446 675 l 25
 265 393 l 25
 316 112 l 25
 258 112 l 25
 225 346 l 25
 84 112 l 25
 26 112 l 25
 207 393 l 25
 156 675 l 29
EndSplineSet
Validated: 1
EndChar

StartChar: uni0425
Encoding: 197 1061 72
Width: 375
Flags: HW
LayerCount: 2
Fore
SplineSet
156 675 m 29
 213 675 l 25
 247 440 l 25
 388 675 l 25
 446 675 l 25
 265 393 l 25
 316 112 l 25
 258 112 l 25
 225 346 l 25
 84 112 l 25
 26 112 l 25
 207 393 l 25
 156 675 l 29
EndSplineSet
Validated: 1
EndChar

StartChar: Y
Encoding: 89 89 73
Width: 375
Flags: HW
LayerCount: 2
Fore
SplineSet
265 393 m 25
 200 112 l 25
 142 112 l 25
 207 393 l 25
 156 675 l 25
 213 675 l 25
 252 464 l 25
 388 675 l 25
 446 675 l 25
 265 393 l 25
EndSplineSet
Validated: 1
EndChar

StartChar: Z
Encoding: 90 90 74
Width: 375
Flags: HW
LayerCount: 2
Fore
SplineSet
156 675 m 25
 446 675 l 25
 431 612 l 25
 98 175 l 25
 331 175 l 25
 316 112 l 25
 26 112 l 25
 40 175 l 25
 374 612 l 25
 141 612 l 25
 156 675 l 25
EndSplineSet
Validated: 1
EndChar

StartChar: bracketleft
Encoding: 91 91 75
Width: 375
Flags: HW
LayerCount: 2
Fore
SplineSet
212 675 m 25xe0
 387 675 l 25
 373 612 l 25xe0
 256 612 l 25
 98 -75 l 25xd0
 214 -75 l 25
 199 -138 l 25
 25 -138 l 25
 212 675 l 25xe0
EndSplineSet
Validated: 1
EndChar

StartChar: backslash
Encoding: 92 92 76
Width: 375
Flags: HW
LayerCount: 2
Fore
SplineSet
156 675 m 25
 213 675 l 25
 316 112 l 25
 258 112 l 25
 156 675 l 25
EndSplineSet
Validated: 1
EndChar

StartChar: bracketright
Encoding: 93 93 77
Width: 375
Flags: HW
LayerCount: 2
Fore
SplineSet
199 -138 m 25xe0
 25 -138 l 25
 39 -75 l 25xe0
 155 -75 l 25
 314 612 l 25xd0
 198 612 l 25
 212 675 l 25
 387 675 l 25
 199 -138 l 25xe0
EndSplineSet
Validated: 1
EndChar

StartChar: asciicircum
Encoding: 94 94 78
Width: 375
Flags: HW
LayerCount: 2
Fore
SplineSet
84 363 m 25
 272 675 l 25
 330 675 l 25
 374 363 l 25
 316 363 l 25
 283 596 l 25
 141 363 l 25
 84 363 l 25
EndSplineSet
Validated: 1
EndChar

StartChar: underscore
Encoding: 95 95 79
Width: 375
Flags: HW
LayerCount: 2
Fore
SplineSet
12 50 m 25
 360 50 l 25
 346 -13 l 25
 -3 -13 l 25
 12 50 l 25
EndSplineSet
Validated: 1
EndChar

StartChar: grave
Encoding: 96 96 80
Width: 375
Flags: HW
LayerCount: 2
Fore
SplineSet
212 675 m 25
 271 675 l 25
 351 518 l 25
 344 487 l 25
 285 487 l 25
 205 643 l 25
 212 675 l 25
EndSplineSet
Validated: 1
EndChar

StartChar: a
Encoding: 97 97 81
Width: 375
Flags: HW
LayerCount: 2
Fore
SplineSet
160 341 m 25
 128 313 l 25
 102 202 l 25
 122 175 l 25
 229 175 l 25
 263 202 l 25
 288 313 l 25
 267 341 l 25
 160 341 l 25
364 404 m 25
 297 112 l 1
 242 112 l 25
 249 143 l 25
 214 112 l 25
 81 112 l 25
 40 175 l 25
 79 341 l 25
 148 404 l 25
 282 404 l 25
 302 372 l 1
 309 404 l 25
 364 404 l 25
EndSplineSet
Validated: 1
EndChar

StartChar: uni0430
Encoding: 208 1072 82
Width: 375
Flags: HW
LayerCount: 2
Fore
SplineSet
160 341 m 25
 128 313 l 25
 102 202 l 25
 122 175 l 25
 229 175 l 25
 263 202 l 25
 288 313 l 25
 267 341 l 25
 160 341 l 25
364 404 m 25
 297 112 l 1
 242 112 l 25
 249 143 l 25
 214 112 l 25
 81 112 l 25
 40 175 l 25
 79 341 l 25
 148 404 l 25
 282 404 l 25
 302 372 l 1
 309 404 l 25
 364 404 l 25
EndSplineSet
Validated: 1
EndChar

StartChar: b
Encoding: 98 98 83
Width: 375
Flags: HW
LayerCount: 2
Fore
SplineSet
267 341 m 29
 160 341 l 29
 128 313 l 29
 102 202 l 29
 122 175 l 29
 229 175 l 29
 263 202 l 29
 288 313 l 29
 267 341 l 29
156 675 m 29
 211 675 l 29
 141 372 l 29
 175 404 l 29
 309 404 l 29
 350 341 l 29
 312 175 l 29
 242 112 l 29
 108 112 l 29
 88 143 l 29
 81 112 l 29
 26 112 l 29
 156 675 l 29
EndSplineSet
Validated: 1
EndChar

StartChar: d
Encoding: 100 100 84
Width: 375
Flags: HW
LayerCount: 2
Fore
SplineSet
160 341 m 25
 128 313 l 25
 102 202 l 25
 122 175 l 25
 229 175 l 25
 263 202 l 25
 288 313 l 25
 267 341 l 25
 160 341 l 25
427 675 m 25
 297 112 l 25
 242 112 l 25
 249 143 l 25
 214 112 l 25
 81 112 l 25
 40 175 l 25
 79 341 l 25
 148 404 l 25
 282 404 l 25
 302 372 l 25
 372 675 l 25
 427 675 l 25
EndSplineSet
Validated: 1
EndChar

StartChar: p
Encoding: 112 112 85
Width: 375
Flags: HW
LayerCount: 2
Fore
SplineSet
226 163 m 25
 260 192 l 25
 288 311 l 25
 267 341 l 25
 160 341 l 25
 127 311 l 25
 100 192 l 25
 119 163 l 25
 226 163 l 25
-32 -138 m 25
 93 404 l 25
 148 404 l 25
 141 372 l 25
 175 404 l 25
 309 404 l 25
 350 341 l 25
 309 163 l 25
 239 100 l 25
 105 100 l 25
 85 131 l 25
 23 -138 l 25
 -32 -138 l 25
EndSplineSet
Validated: 1
EndChar

StartChar: q
Encoding: 113 113 86
Width: 375
Flags: HW
LayerCount: 2
Fore
SplineSet
119 163 m 25
 226 163 l 25
 260 192 l 25
 288 311 l 25
 267 341 l 25
 160 341 l 25
 127 311 l 25
 100 192 l 25
 119 163 l 25
239 -137 m 25
 184 -137 l 25
 246 131 l 25
 212 100 l 25
 78 100 l 25
 38 163 l 25
 79 341 l 25
 148 404 l 25
 282 404 l 25
 302 372 l 25
 309 404 l 25
 364 404 l 25
 239 -137 l 25
EndSplineSet
Validated: 1
EndChar

StartChar: uni0440
Encoding: 224 1088 87
Width: 375
Flags: HW
LayerCount: 2
Fore
SplineSet
226 163 m 25
 261 193 l 25
 288 312 l 25
 267 342 l 25
 161 342 l 25
 127 312 l 25
 100 193 l 25
 119 163 l 25
 226 163 l 25
-32 -138 m 25
 93 405 l 25
 149 405 l 25
 141 373 l 25
 175 405 l 25
 309 405 l 25
 350 342 l 25
 309 163 l 25
 239 100 l 25
 105 100 l 25
 86 131 l 25
 23 -138 l 25
 -32 -138 l 25
EndSplineSet
Validated: 1
EndChar

StartChar: c
Encoding: 99 99 88
Width: 375
Flags: HW
LayerCount: 2
Fore
SplineSet
148 404 m 25
 309 404 l 25
 350 341 l 25
 337 286 l 25
 282 286 l 25
 288 313 l 25
 267 341 l 25
 160 341 l 25
 128 313 l 25
 102 202 l 25
 122 175 l 25
 229 175 l 25
 263 202 l 25
 269 230 l 25
 324 230 l 25
 312 175 l 25
 242 112 l 25
 81 112 l 25
 40 175 l 25
 79 341 l 25
 148 404 l 25
EndSplineSet
Validated: 1
EndChar

StartChar: uni0441
Encoding: 225 1089 89
Width: 375
Flags: HW
LayerCount: 2
Fore
SplineSet
149 405 m 25
 309 405 l 25
 350 342 l 25
 337 286 l 25
 282 286 l 25
 289 314 l 25
 267 342 l 25
 161 342 l 25
 128 314 l 25
 102 203 l 25
 122 175 l 25
 229 175 l 25
 263 203 l 25
 269 230 l 25
 324 230 l 25
 312 175 l 25
 242 112 l 25
 81 112 l 25
 40 175 l 25
 79 342 l 25
 149 405 l 25
EndSplineSet
Validated: 1
EndChar

StartChar: e
Encoding: 101 101 90
Width: 375
Flags: HW
CounterMasks: 1 e0
LayerCount: 2
Fore
SplineSet
267 341 m 25
 160 341 l 25
 128 315 l 25
 122 289 l 25
 283 289 l 25
 289 315 l 25
 267 341 l 25
148 404 m 25
 309 404 l 25
 350 341 l 25
 323 226 l 25
 107 226 l 25
 102 201 l 25
 122 175 l 25
 312 175 l 25
 242 112 l 25
 81 112 l 25
 40 175 l 25
 79 341 l 25
 148 404 l 25
EndSplineSet
Validated: 1
EndChar

StartChar: uni0435
Encoding: 213 1077 91
Width: 375
Flags: HW
CounterMasks: 1 e0
LayerCount: 2
Fore
SplineSet
267 341 m 25
 160 341 l 25
 128 315 l 25
 122 289 l 25
 283 289 l 25
 289 315 l 25
 267 341 l 25
148 404 m 25
 309 404 l 25
 350 341 l 25
 323 226 l 25
 107 226 l 25
 102 201 l 25
 122 175 l 25
 312 175 l 25
 242 112 l 25
 81 112 l 25
 40 175 l 25
 79 341 l 25
 148 404 l 25
EndSplineSet
Validated: 1
EndChar

StartChar: uni0451
Encoding: 241 1105 92
Width: 375
Flags: HW
LayerCount: 2
Fore
SplineSet
291 550 m 25xf2
 347 550 l 25
 333 487 l 25
 277 487 l 25
 291 550 l 25xf2
182 550 m 25xf4
 238 550 l 25
 224 487 l 25
 168 487 l 25
 182 550 l 25xf4
271 342 m 25
 162 342 l 25
 128 316 l 25
 122 290 l 25
 287 290 l 25
 293 316 l 25xf9
 271 342 l 25
149 405 m 25xf4
 314 405 l 25
 354 342 l 25
 328 227 l 25
 108 227 l 25
 102 201 l 25xf9
 123 175 l 25
 316 175 l 25
 246 112 l 25
 81 112 l 25xf5
 40 175 l 25
 79 342 l 25xf8
 149 405 l 25xf4
EndSplineSet
Validated: 1
EndChar

StartChar: f
Encoding: 102 102 93
Width: 375
Flags: HW
HStem: 112 21G<79 139.629> 341 63<93 132 202 295> 612 63<277 410>
DStem2: 79 112 135 112 0.224148 0.974555<12.5523 235.053 312.14 489.704>
LayerCount: 2
Fore
SplineSet
265 675 m 25
 425 675 l 25
 410 612 l 25
 277 612 l 25
 242 577 l 25
 202 404 l 25
 309 404 l 25
 295 341 l 25
 188 341 l 25
 135 112 l 25
 79 112 l 25
 132 341 l 25
 79 341 l 25
 93 404 l 25
 146 404 l 25
 194 612 l 25
 265 675 l 25
EndSplineSet
Validated: 1
EndChar

StartChar: g
Encoding: 103 103 94
Width: 375
Flags: HW
CounterMasks: 1 e0
LayerCount: 2
Fore
SplineSet
120 164 m 25
 227 164 l 25
 261 194 l 25
 288 312 l 25
 267 341 l 25
 160 341 l 25
 127 312 l 25
 100 194 l 25
 120 164 l 25
184 -138 m 25
 23 -138 l 25
 -17 -75 l 25
 10 43 l 25
 65 43 l 25
 45 -46 l 25
 64 -75 l 25
 171 -75 l 25
 205 -46 l 25
 247 133 l 25
 212 101 l 25
 79 101 l 25
 38 164 l 25
 79 341 l 25
 148 404 l 25
 282 404 l 1
 302 372 l 1
 309 404 l 1
 364 404 l 9
 254 -75 l 25
 184 -138 l 25
EndSplineSet
Validated: 1
EndChar

StartChar: h
Encoding: 104 104 95
Width: 375
Flags: HW
LayerCount: 2
Fore
SplineSet
242 112 m 25
 288 312 l 25
 267 341 l 25
 160 341 l 25
 127 312 l 25
 81 112 l 25
 26 112 l 25
 156 675 l 25
 211 675 l 25
 141 372 l 25
 175 404 l 25
 309 404 l 25
 350 341 l 25
 297 112 l 25
 242 112 l 25
EndSplineSet
Validated: 1
EndChar

StartChar: i
Encoding: 105 105 96
Width: 375
Flags: HW
HStem: 112 21G<134 193.601> 405 20G<201.399 261> 612 63<264 305>
VStem: 134 185
DStem2: 134 112 189 112 0.224986 0.974362<12.3742 321.174 525.654 577.814>
LayerCount: 2
Fore
SplineSet
206 425 m 29
 261 425 l 25
 189 112 l 25
 134 112 l 25
 206 425 l 29
264 675 m 25
 319 675 l 25
 305 612 l 25
 249 612 l 25
 264 675 l 25
EndSplineSet
Validated: 1
EndChar

StartChar: j
Encoding: 106 106 97
Width: 375
Flags: HW
LayerCount: 2
Fore
SplineSet
207 425 m 25
 262 425 l 25
 147 -75 l 1
 77 -138 l 1
 23 -138 l 5
 -17 -75 l 1
 12 50 l 1
 67 50 l 1
 45 -44 l 1
 64 -75 l 1
 99 -44 l 1
 207 425 l 25
265 675 m 25
 320 675 l 25
 306 612 l 25
 250 612 l 25
 265 675 l 25
EndSplineSet
Validated: 1
EndChar

StartChar: k
Encoding: 107 107 98
Width: 375
Flags: HW
HStem: 112 21G<26 85.6809 212.426 299.516> 405 20G<275.277 367> 655 20G<151.382 211>
DStem2: 26 112 81 112 0.224986 0.974362<12.3742 108.914 237.234 577.814> 117 268 103 206 0.828589 -0.559857<23.1109 190.911> 132 331 117 268 0.889245 0.457431<0 204.841>
LayerCount: 2
Fore
SplineSet
132 331 m 25
 314 425 l 25
 367 425 l 1
 360 393 l 1
 117 268 l 1
 302 143 l 1
 295 112 l 1
 242 112 l 25
 103 206 l 25
 81 112 l 25
 26 112 l 25
 156 675 l 25
 211 675 l 25
 132 331 l 25
EndSplineSet
Validated: 1
EndChar

StartChar: uni043A
Encoding: 218 1082 99
Width: 375
Flags: HW
HStem: 112 313
DStem2: 26 112 81 112 0.224177 0.974548<12.3297 108.869 237.189 321.174> 117 268 103 206 0.828589 -0.559857<23.1109 190.911> 132 331 117 268 0.889245 0.457431<0 204.841>
LayerCount: 2
Fore
SplineSet
132 331 m 25
 314 425 l 25
 367 425 l 1
 360 393 l 1
 117 268 l 1
 302 143 l 1
 295 112 l 1
 242 112 l 25
 103 206 l 25
 81 112 l 25
 26 112 l 25
 98 425 l 25
 153 425 l 25
 132 331 l 25
EndSplineSet
Validated: 1
EndChar

StartChar: l
Encoding: 108 108 100
Width: 375
Flags: HW
HStem: 112 21G<134 193.618> 655 20G<259.382 319>
VStem: 134 185
DStem2: 134 112 189 112 0.224986 0.974362<12.3742 577.814>
LayerCount: 2
Fore
SplineSet
264 675 m 25
 319 675 l 25
 189 112 l 25
 134 112 l 25
 264 675 l 25
EndSplineSet
Validated: 1
EndChar

StartChar: m
Encoding: 109 109 101
Width: 375
Flags: HW
HStem: 112 313<103 108 213 217>
VStem: 26 331
DStem2: 26 112 81 112 0.224177 0.974548<12.3297 237.189 300.749 321.174> 135 112 190 112 0.226808 0.97394<12.4744 224.633> 244 112 299 112 0.225998 0.974128<12.4299 224.86>
LayerCount: 2
Fore
SplineSet
98 425 m 25
 153 425 l 25
 146 393 l 25
 180 425 l 25
 207 425 l 25
 227 393 l 25
 262 425 l 25
 316 425 l 25
 357 362 l 25
 299 112 l 25
 244 112 l 25
 295 331 l 25
 274 362 l 25
 241 331 l 25
 190 112 l 25
 135 112 l 25
 185 331 l 25
 165 362 l 25
 132 331 l 25
 81 112 l 25
 26 112 l 25
 98 425 l 25
EndSplineSet
Validated: 1
EndChar

StartChar: n
Encoding: 110 110 102
Width: 375
Flags: HW
LayerCount: 2
Fore
SplineSet
267 341 m 25
 160 341 l 25
 127 312 l 25
 81 112 l 25
 26 112 l 25
 93 404 l 25
 148 404 l 25
 141 372 l 25
 175 404 l 25
 309 404 l 25
 350 341 l 25
 297 112 l 25
 242 112 l 25
 288 312 l 25
 267 341 l 25
EndSplineSet
Validated: 1
EndChar

StartChar: o
Encoding: 111 111 103
Width: 375
Flags: HW
LayerCount: 2
Fore
SplineSet
267 341 m 25
 160 341 l 25
 128 313 l 25
 102 202 l 1
 122 175 l 25
 229 175 l 25
 263 202 l 1
 288 313 l 25
 267 341 l 25
148 404 m 25
 309 404 l 25
 350 341 l 25
 312 175 l 1
 242 112 l 25
 81 112 l 25
 40 175 l 1
 79 341 l 25
 148 404 l 25
EndSplineSet
Validated: 1
EndChar

StartChar: uni043E
Encoding: 222 1086 104
Width: 375
Flags: HW
LayerCount: 2
Fore
SplineSet
267 342 m 25
 161 342 l 25
 128 314 l 25
 102 203 l 1
 122 175 l 25
 229 175 l 25
 263 203 l 1
 289 314 l 25
 267 342 l 25
149 405 m 25
 309 405 l 25
 350 342 l 25
 312 175 l 1
 242 112 l 25
 81 112 l 25
 40 175 l 1
 79 342 l 25
 149 405 l 25
EndSplineSet
Validated: 1
EndChar

StartChar: r
Encoding: 114 114 105
Width: 375
Flags: HW
LayerCount: 2
Fore
SplineSet
26 112 m 25
 93 404 l 25
 148 404 l 25
 141 372 l 25
 175 404 l 25
 309 404 l 25
 350 341 l 25
 337 284 l 25
 282 284 l 25
 288 312 l 25
 267 341 l 25
 160 341 l 25
 127 312 l 25
 81 112 l 25
 26 112 l 25
EndSplineSet
Validated: 1
EndChar

StartChar: s
Encoding: 115 115 106
Width: 375
Flags: HW
CounterMasks: 1 e0
LayerCount: 2
Fore
SplineSet
356 341 m 25
 161 341 l 1
 128 315 l 25
 150 289 l 1
 289 289 l 25
 330 226 l 1
 318 175 l 1
 248 112 l 25
 81 112 l 25
 40 175 l 25
 234 175 l 25
 269 201 l 25
 246 226 l 25
 103 226 l 25
 67 289 l 25
 79 341 l 25
 148 404 l 25
 316 404 l 1
 356 341 l 25
EndSplineSet
Validated: 1
EndChar

StartChar: t
Encoding: 116 116 107
Width: 375
Flags: HW
LayerCount: 2
Fore
SplineSet
135 112 m 25
 93 175 l 25
 132 341 l 25
 79 341 l 25
 93 404 l 25
 146 404 l 25
 209 675 l 25
 265 675 l 25
 202 404 l 25
 309 404 l 25
 295 341 l 25
 188 341 l 25
 156 202 l 25
 176 175 l 17
 229 175 l 1
 263 202 l 1
 282 286 l 1
 337 286 l 1
 312 175 l 1
 242 112 l 25
 135 112 l 25
EndSplineSet
Validated: 1
EndChar

StartChar: u
Encoding: 117 117 108
Width: 375
Flags: HW
LayerCount: 2
Fore
SplineSet
364 404 m 25
 297 112 l 5
 242 112 l 1
 249 143 l 1
 214 112 l 9
 81 112 l 25
 40 175 l 1
 93 404 l 25
 148 404 l 25
 102 203 l 1
 122 175 l 25
 229 175 l 25
 263 203 l 1
 309 404 l 25
 364 404 l 25
EndSplineSet
Validated: 1
EndChar

StartChar: v
Encoding: 118 118 109
Width: 375
Flags: HW
LayerCount: 2
Fore
SplineSet
98 425 m 25
 153 425 l 25
 183 190 l 25
 321 425 l 25
 376 425 l 25
 192 112 l 25
 137 112 l 25
 98 425 l 25
EndSplineSet
Validated: 1
EndChar

StartChar: w
Encoding: 119 119 110
Width: 375
Flags: HW
LayerCount: 2
Fore
SplineSet
26 112 m 1
 98 425 l 25
 153 425 l 25
 117 268 l 1
 207 425 l 25
 260 425 l 25
 278 268 l 1
 314 425 l 25
 369 425 l 25
 297 112 l 1
 242 112 l 25
 215 346 l 25
 81 112 l 25
 26 112 l 1
EndSplineSet
Validated: 1
EndChar

StartChar: x
Encoding: 120 120 111
Width: 375
Flags: HW
LayerCount: 2
Fore
SplineSet
98 425 m 25
 153 425 l 25
 212 319 l 25
 321 425 l 25
 376 425 l 25
 368 393 l 25
 241 268 l 25
 311 143 l 25
 304 112 l 25
 248 112 l 25
 189 217 l 25
 81 112 l 25
 26 112 l 25
 33 143 l 25
 161 268 l 25
 91 393 l 25
 98 425 l 25
EndSplineSet
Validated: 1
EndChar

StartChar: uni0445
Encoding: 229 1093 112
Width: 375
Flags: HW
LayerCount: 2
Fore
SplineSet
98 425 m 25
 153 425 l 25
 212 319 l 25
 321 425 l 25
 376 425 l 25
 368 393 l 25
 241 268 l 25
 311 143 l 25
 304 112 l 25
 248 112 l 25
 189 217 l 25
 81 112 l 25
 26 112 l 25
 33 143 l 25
 161 268 l 25
 91 393 l 25
 98 425 l 25
EndSplineSet
Validated: 1
EndChar

StartChar: y
Encoding: 121 121 113
Width: 375
Flags: HW
LayerCount: 2
Fore
SplineSet
23 -138 m 25
 -32 -138 l 25
 142 132 l 25
 93 404 l 25
 148 404 l 25
 185 201 l 25
 316 404 l 25
 371 404 l 25
 23 -138 l 25
EndSplineSet
Validated: 1
EndChar

StartChar: uni0423
Encoding: 195 1059 114
Width: 375
Flags: HW
LayerCount: 2
Fore
SplineSet
84 112 m 29
 26 112 l 29
 207 393 l 29
 156 675 l 29
 213 675 l 29
 252 464 l 29
 388 675 l 29
 446 675 l 29
 84 112 l 29
EndSplineSet
Validated: 1
EndChar

StartChar: uni0443
Encoding: 227 1091 115
Width: 375
Flags: HW
LayerCount: 2
Fore
SplineSet
23 -138 m 25
 -32 -138 l 25
 144 143 l 25
 98 425 l 25
 153 425 l 25
 188 214 l 25
 321 425 l 25
 376 425 l 25
 23 -138 l 25
EndSplineSet
Validated: 1
EndChar

StartChar: z
Encoding: 122 122 116
Width: 375
Flags: HW
LayerCount: 2
Fore
SplineSet
93 404 m 25
 371 404 l 25
 356 341 l 25
 130 175 l 25
 318 175 l 25
 304 112 l 25
 26 112 l 25
 40 175 l 25
 266 341 l 25
 79 341 l 25
 93 404 l 25
EndSplineSet
Validated: 1
EndChar

StartChar: uni043C
Encoding: 220 1084 117
Width: 375
Flags: HW
LayerCount: 2
Fore
SplineSet
98 425 m 1
 153 425 l 25
 179 190 l 25
 314 425 l 25
 369 425 l 1
 297 112 l 25
 242 112 l 25
 278 268 l 1
 188 112 l 25
 135 112 l 25
 117 268 l 1
 81 112 l 25
 26 112 l 25
 98 425 l 1
EndSplineSet
Validated: 1
EndChar

StartChar: braceleft
Encoding: 123 123 118
Width: 375
Flags: HW
LayerCount: 2
Fore
SplineSet
329 675 m 25
 387 675 l 25
 373 612 l 25
 343 612 l 25
 307 581 l 25
 249 331 l 25
 177 268 l 25
 220 206 l 25
 163 -44 l 25
 184 -75 l 25
 214 -75 l 25
 199 -138 l 25
 141 -138 l 25
 98 -75 l 25
 155 175 l 25
 111 237 l 25
 126 300 l 25
 199 362 l 25
 256 612 l 25
 329 675 l 25
EndSplineSet
Validated: 1
EndChar

StartChar: bar
Encoding: 124 124 119
Width: 375
Flags: HW
LayerCount: 2
Fore
SplineSet
125 675 m 25
 187 675 l 25
 187 -138 l 25
 125 -138 l 25
 125 675 l 25
EndSplineSet
Validated: 1
EndChar

StartChar: braceright
Encoding: 125 125 120
Width: 375
Flags: HW
LayerCount: 2
Fore
SplineSet
271 675 m 25
 314 612 l 25
 256 362 l 25
 301 300 l 25
 286 237 l 25
 213 175 l 25
 155 -75 l 25
 83 -138 l 25
 25 -138 l 25
 39 -75 l 25
 68 -75 l 25
 105 -44 l 25
 163 206 l 25
 235 268 l 25
 191 331 l 25
 249 581 l 25
 227 612 l 25
 198 612 l 25
 212 675 l 25
 271 675 l 25
EndSplineSet
Validated: 1
EndChar

StartChar: asciitilde
Encoding: 126 126 121
Width: 375
Flags: HW
LayerCount: 2
Fore
SplineSet
141 362 m 25
 200 362 l 25
 257 237 l 25
 331 300 l 25
 359 300 l 25
 345 237 l 25
 273 175 l 25
 214 175 l 25
 156 300 l 25
 84 237 l 25
 55 237 l 25
 69 300 l 25
 141 362 l 25
EndSplineSet
Validated: 1
EndChar

StartChar: uni0411
Encoding: 177 1041 122
Width: 375
Flags: HW
CounterMasks: 1 e0
LayerCount: 2
Fore
SplineSet
286 362 m 25
 141 362 l 25
 98 175 l 25
 243 175 l 25
 280 206 l 25
 309 331 l 25
 286 362 l 25
431 612 m 25
 199 612 l 25
 156 425 l 1
 331 425 l 25
 374 362 l 1
 331 175 l 25
 258 112 l 25
 26 112 l 25
 156 675 l 25
 446 675 l 25
 431 612 l 25
EndSplineSet
Validated: 1
EndChar

StartChar: uni0413
Encoding: 179 1043 123
Width: 375
Flags: HW
LayerCount: 2
Fore
SplineSet
26 112 m 25
 156 675 l 25
 446 675 l 25
 431 612 l 25
 199 612 l 25
 84 112 l 9
 26 112 l 25
EndSplineSet
Validated: 1
EndChar

StartChar: uni0414
Encoding: 180 1044 124
Width: 375
Flags: HW
LayerCount: 2
Fore
SplineSet
315 612 m 25x6c
 286 612 l 25
 250 581 l 25
 157 175 l 25
 214 175 l 25
 315 612 l 25x6c
272 675 m 25
 388 675 l 25xaa
 273 175 l 25xa4
 331 175 l 25
 287 -13 l 25
 229 -13 l 25xa2
 258 112 l 25
 84 112 l 25x72
 55 -13 l 25
 -3 -13 l 25
 40 175 l 25xb2
 98 175 l 25xa8
 199 612 l 25
 272 675 l 25
EndSplineSet
Validated: 1
EndChar

StartChar: uni0416
Encoding: 182 1046 125
Width: 375
Flags: HW
LayerCount: 2
Fore
SplineSet
272 675 m 25
 330 675 l 25
 294 518 l 25
 388 675 l 25
 446 675 l 25
 265 393 l 25
 316 112 l 25
 258 112 l 25
 236 268 l 25
 200 112 l 25
 142 112 l 25
 178 268 l 25
 84 112 l 25
 26 112 l 25
 207 393 l 25
 156 675 l 25
 213 675 l 25
 236 518 l 25
 272 675 l 25
EndSplineSet
Validated: 1
EndChar

StartChar: uni041B
Encoding: 187 1051 127
Width: 375
Flags: HW
LayerCount: 2
Fore
SplineSet
268 534 m 1
 84 112 l 25
 26 112 l 1
 272 675 l 25
 328 675 l 25
 316 112 l 25
 258 112 l 25
 268 534 l 1
EndSplineSet
Validated: 1
EndChar

StartChar: uni041F
Encoding: 191 1055 128
Width: 375
Flags: HW
LayerCount: 2
Fore
SplineSet
26 112 m 25
 156 675 l 25
 446 675 l 25
 316 112 l 25
 258 112 l 25
 374 612 l 25
 199 612 l 25
 84 112 l 25
 26 112 l 25
EndSplineSet
Validated: 1
EndChar

StartChar: uni0424
Encoding: 196 1060 129
Width: 375
Flags: HW
LayerCount: 2
Fore
SplineSet
192 581 m 25
 105 206 l 25
 127 175 l 25
 157 175 l 25
 258 612 l 25
 228 612 l 25
 192 581 l 25
280 206 m 25
 367 581 l 25
 344 612 l 25
 315 612 l 25
 214 175 l 25
 243 175 l 25
 280 206 l 25
84 112 m 25
 40 175 l 25
 141 612 l 25
 213 675 l 25
 272 675 l 25
 301 800 l 25
 359 800 l 25
 330 675 l 25
 388 675 l 25
 431 612 l 25
 331 175 l 25
 258 112 l 25
 200 112 l 25
 171 -13 l 25
 113 -13 l 25
 142 112 l 25
 84 112 l 25
EndSplineSet
Validated: 1
EndChar

StartChar: uni0426
Encoding: 198 1062 130
Width: 375
Flags: HW
LayerCount: 2
Fore
SplineSet
156 675 m 29xe8
 213 675 l 25
 98 175 l 25
 273 175 l 25
 388 675 l 25
 446 675 l 25
 331 175 l 25xf0
 389 175 l 25
 346 -13 l 25
 287 -13 l 25
 316 112 l 25
 26 112 l 25
 156 675 l 29xe8
EndSplineSet
Validated: 1
EndChar

StartChar: uni0427
Encoding: 199 1063 131
Width: 375
Flags: HW
LayerCount: 2
Fore
SplineSet
156 675 m 25
 213 675 l 25
 163 456 l 25
 185 425 l 25
 301 425 l 25
 338 456 l 25
 388 675 l 25
 446 675 l 25
 316 112 l 25
 258 112 l 25
 322 393 l 25
 286 362 l 25
 141 362 l 25
 98 425 l 25
 156 675 l 25
EndSplineSet
Validated: 1
EndChar

StartChar: uni0428
Encoding: 200 1064 132
Width: 375
Flags: HW
CounterMasks: 1 38
LayerCount: 2
Fore
SplineSet
156 675 m 25
 213 675 l 25
 98 175 l 25
 157 175 l 25
 272 675 l 25
 330 675 l 25
 214 175 l 25
 273 175 l 25
 388 675 l 25
 446 675 l 25
 316 112 l 25
 26 112 l 25
 156 675 l 25
EndSplineSet
Validated: 1
EndChar

StartChar: uni0429
Encoding: 201 1065 133
Width: 375
Flags: HW
LayerCount: 2
Fore
SplineSet
156 675 m 25xf4
 213 675 l 25
 98 175 l 25
 157 175 l 25
 272 675 l 25
 330 675 l 25
 214 175 l 25
 273 175 l 25
 388 675 l 25
 446 675 l 17
 331 175 l 1xf8
 389 175 l 1
 346 -13 l 1
 287 -13 l 1
 316 112 l 9
 26 112 l 25
 156 675 l 25xf4
EndSplineSet
Validated: 1
EndChar

StartChar: uni042A
Encoding: 202 1066 134
Width: 375
Flags: HW
CounterMasks: 1 e0
LayerCount: 2
Fore
SplineSet
286 362 m 25xec
 200 362 l 25
 157 175 l 25
 243 175 l 25
 280 206 l 25
 309 331 l 25
 286 362 l 25xec
156 675 m 25xf4
 272 675 l 25xf4
 214 425 l 25
 331 425 l 25
 374 362 l 25
 331 175 l 25
 258 112 l 25
 84 112 l 25
 199 612 l 25xec
 141 612 l 25
 156 675 l 25xf4
EndSplineSet
Validated: 1
EndChar

StartChar: uni042C
Encoding: 204 1068 135
Width: 375
Flags: HW
LayerCount: 2
Fore
SplineSet
286 362 m 25
 141 362 l 25
 98 175 l 25
 243 175 l 25
 280 206 l 25
 309 331 l 25
 286 362 l 25
213 675 m 25
 156 425 l 25
 331 425 l 25
 374 362 l 25
 331 175 l 25
 258 112 l 25
 26 112 l 25
 156 675 l 25
 213 675 l 25
EndSplineSet
Validated: 1
EndChar

StartChar: uni042B
Encoding: 203 1067 136
Width: 375
Flags: HW
CounterMasks: 1 1c
LayerCount: 2
Fore
SplineSet
388 675 m 25
 446 675 l 25
 316 112 l 25
 258 112 l 25
 388 675 l 25
170 362 m 25
 141 362 l 25
 98 175 l 25
 127 175 l 25
 164 206 l 25
 193 331 l 25
 170 362 l 25
213 675 m 25
 156 425 l 25
 214 425 l 25
 257 362 l 25
 214 175 l 25
 142 112 l 25
 26 112 l 25
 156 675 l 25
 213 675 l 25
EndSplineSet
Validated: 1
EndChar

StartChar: uni042D
Encoding: 205 1069 137
Width: 375
Flags: HW
CounterMasks: 1 e0
LayerCount: 2
Fore
SplineSet
316 362 m 25
 200 362 l 25
 214 425 l 25
 331 425 l 25
 367 581 l 25
 344 612 l 25
 228 612 l 25
 192 581 l 25
 170 487 l 25
 112 487 l 25
 141 612 l 25
 213 675 l 25
 388 675 l 25
 431 612 l 25
 331 175 l 25
 258 112 l 25
 84 112 l 25
 40 175 l 25
 69 300 l 25
 127 300 l 25
 105 206 l 25
 127 175 l 25
 243 175 l 25
 280 206 l 25
 316 362 l 25
EndSplineSet
Validated: 1
EndChar

StartChar: uni042E
Encoding: 206 1070 138
Width: 375
Flags: HW
CounterMasks: 1 1c
LayerCount: 2
Fore
SplineSet
344 612 m 25
 308 581 l 25
 221 206 l 25
 243 175 l 25
 280 206 l 25
 367 581 l 25
 344 612 l 25
156 675 m 25
 213 675 l 25
 156 425 l 25
 214 425 l 25
 258 612 l 25
 330 675 l 25
 388 675 l 25
 431 612 l 25
 331 175 l 25
 258 112 l 25
 200 112 l 25
 157 175 l 25
 200 362 l 25
 141 362 l 25
 83 120 l 25
 28 120 l 25
 156 675 l 25
EndSplineSet
Validated: 1
EndChar

StartChar: uni0431
Encoding: 209 1073 139
Width: 375
Flags: HW
LayerCount: 2
Fore
SplineSet
267 341 m 25
 160 341 l 25
 128 313 l 25
 102 202 l 25
 122 175 l 25
 229 175 l 25
 263 202 l 25
 288 313 l 25
 267 341 l 25
341 543 m 25
 207 543 l 25
 172 507 l 25
 141 372 l 25
 175 404 l 25
 309 404 l 25
 350 341 l 25
 312 175 l 25
 242 112 l 25
 87 112 l 25
 40 175 l 25
 125 542 l 25
 195 605 l 17
 328 605 l 1
 399 675 l 1
 427 675 l 1
 411 605 l 9
 341 543 l 25
EndSplineSet
Validated: 1
EndChar

StartChar: uni0432
Encoding: 210 1074 140
Width: 375
Flags: HW
CounterMasks: 1 e0
LayerCount: 2
Fore
SplineSet
241 226 m 25
 107 226 l 25
 96 175 l 25
 229 175 l 25
 262 201 l 25
 241 226 l 25
267 341 m 25
 134 341 l 25
 122 289 l 25
 255 289 l 25
 289 315 l 25
 267 341 l 25
93 404 m 25
 309 404 l 25
 348 341 l 25
 336 289 l 25
 302 257 l 25
 321 226 l 25
 309 175 l 25
 242 112 l 25
 26 112 l 25
 93 404 l 25
EndSplineSet
Validated: 1
EndChar

StartChar: uni0433
Encoding: 211 1075 141
Width: 375
Flags: HW
HStem: 112 21G<26 85.6288> 341 63<134 348>
DStem2: 26 112 81 112 0.22364 0.974672<12.3002 247.353>
LayerCount: 2
Fore
SplineSet
26 112 m 1
 93 404 l 25
 362 404 l 25
 348 341 l 25
 134 341 l 25
 81 112 l 1
 26 112 l 1
EndSplineSet
Validated: 1
EndChar

StartChar: uni0434
Encoding: 212 1076 142
Width: 375
Flags: HW
CounterMasks: 1 e0
LayerCount: 2
Fore
SplineSet
120 164 m 25
 227 164 l 25
 261 194 l 25
 288 312 l 25
 267 341 l 25
 160 341 l 25
 127 312 l 25
 100 194 l 25
 120 164 l 25
350 341 m 25
 254 -75 l 1
 184 -138 l 17
 -32 -138 l 1
 -17 -75 l 1
 171 -75 l 1
 205 -46 l 1
 247 132 l 9
 212 101 l 25
 79 101 l 25
 38 164 l 25
 79 341 l 25
 148 404 l 25
 309 404 l 1
 350 341 l 25
EndSplineSet
Validated: 1
EndChar

StartChar: uni0436
Encoding: 214 1078 143
Width: 375
Flags: HW
LayerCount: 2
Fore
SplineSet
189 354 m 25
 205 425 l 25
 260 425 l 25
 244 354 l 25
 314 425 l 25
 367 425 l 25
 360 393 l 25
 236 268 l 25
 302 143 l 25
 295 112 l 25
 242 112 l 25
 204 182 l 25
 188 112 l 25
 133 112 l 25
 149 182 l 25
 79 112 l 25
 26 112 l 25
 33 143 l 25
 157 268 l 25
 91 393 l 25
 98 425 l 25
 151 425 l 25
 189 354 l 25
EndSplineSet
Validated: 1
EndChar

StartChar: uni0437
Encoding: 215 1079 144
Width: 375
Flags: HW
CounterMasks: 1 e0
LayerCount: 2
Fore
SplineSet
267 341 m 25
 160 341 l 25
 128 315 l 25
 122 289 l 25
 67 289 l 25
 79 341 l 25
 148 404 l 25
 309 404 l 25
 348 341 l 25
 336 289 l 25
 302 257 l 25
 321 226 l 25
 309 175 l 25
 242 112 l 25
 81 112 l 25
 40 175 l 25
 52 226 l 25
 107 226 l 25
 102 201 l 25
 122 175 l 25
 229 175 l 25
 262 201 l 25
 241 226 l 25
 161 226 l 25
 176 289 l 25
 255 289 l 25
 289 315 l 25
 267 341 l 25
EndSplineSet
Validated: 1
EndChar

StartChar: uni0438
Encoding: 216 1080 145
Width: 375
Flags: HW
LayerCount: 2
Fore
SplineSet
364 404 m 25
 297 112 l 1
 242 112 l 5
 249 143 l 5
 214 112 l 13
 81 112 l 29
 40 175 l 5
 93 404 l 25
 148 404 l 25
 102 203 l 5
 122 175 l 29
 229 175 l 29
 263 203 l 5
 309 404 l 25
 364 404 l 25
EndSplineSet
Validated: 1
EndChar

StartChar: uni0439
Encoding: 217 1081 146
Width: 375
Flags: HW
LayerCount: 2
Fore
SplineSet
369 425 m 25
 297 112 l 1
 242 112 l 1
 249 143 l 1
 214 112 l 9
 81 112 l 25
 40 175 l 1
 98 425 l 25
 153 425 l 25
 103 206 l 1
 122 175 l 25
 229 175 l 25
 264 206 l 1
 314 425 l 25
 369 425 l 25
182 550 m 25
 343 550 l 25
 328 487 l 25
 168 487 l 25
 182 550 l 25
EndSplineSet
Validated: 1
EndChar

StartChar: uni043B
Encoding: 219 1083 147
Width: 375
Flags: HW
LayerCount: 2
Fore
SplineSet
26 112 m 1
 205 425 l 1
 258 425 l 1
 293 112 l 1
 240 112 l 1
 213 346 l 25
 79 112 l 1
 26 112 l 1
EndSplineSet
Validated: 1
EndChar

StartChar: uni043D
Encoding: 221 1085 148
Width: 375
Flags: HW
LayerCount: 2
Fore
SplineSet
98 425 m 25
 153 425 l 25
 124 300 l 25
 285 300 l 25
 314 425 l 25
 369 425 l 25
 297 112 l 25
 242 112 l 25
 271 237 l 25
 110 237 l 25
 81 112 l 25
 26 112 l 25
 98 425 l 25
EndSplineSet
Validated: 1
EndChar

StartChar: uni043F
Encoding: 223 1087 149
Width: 375
Flags: HW
HStem: 112 21G<26 85.6766 242 301.609> 342 63<175 267>
VStem: 26 324
DStem2: 26 112 81 112 0.226073 0.97411<12.434 218.856 280.241 300.561> 242 112 297 112 0.22455 0.974463<12.3503 206.196>
LayerCount: 2
Fore
SplineSet
267 342 m 25
 161 342 l 25
 128 313 l 25
 81 112 l 25
 26 112 l 25
 93 405 l 25
 149 405 l 25
 141 373 l 25
 175 405 l 25
 309 405 l 25
 350 342 l 25
 297 112 l 25
 242 112 l 25
 288 313 l 25
 267 342 l 25
EndSplineSet
Validated: 1
EndChar

StartChar: uni0442
Encoding: 226 1090 150
Width: 375
Flags: HW
HStem: 112 313<103 108 213 217>
VStem: 26 331
DStem2: 26 112 81 112 0.224177 0.974548<12.3297 237.189 300.749 321.174> 135 112 190 112 0.226808 0.97394<12.4744 224.633> 244 112 299 112 0.225998 0.974128<12.4299 224.86>
LayerCount: 2
Fore
SplineSet
98 425 m 25
 153 425 l 25
 146 393 l 25
 180 425 l 25
 207 425 l 25
 227 393 l 25
 262 425 l 25
 316 425 l 25
 357 362 l 25
 299 112 l 25
 244 112 l 25
 295 331 l 25
 274 362 l 25
 241 331 l 25
 190 112 l 25
 135 112 l 25
 185 331 l 25
 165 362 l 25
 132 331 l 25
 81 112 l 25
 26 112 l 25
 98 425 l 25
EndSplineSet
Validated: 1
EndChar

StartChar: uni0444
Encoding: 228 1092 151
Width: 375
Flags: HW
HStem: 104 63<120 133 203 229> 342 63<161 188 258 270>
VStem: 39 313
DStem2: 39 167 100 196 0.222825 0.974859<41.8632 161.938> 106 -13 161 -13 0.224986 0.974362<12.3742 120.075 197.209 364.347 441.481 577.814> 263 196 312 167 0.222825 0.974859<0 120.075>
LayerCount: 2
Fore
SplineSet
127 313 m 25
 100 196 l 25
 120 167 l 25
 148 167 l 25
 188 342 l 25
 161 342 l 25
 127 313 l 25
263 196 m 25
 290 313 l 25
 270 342 l 25
 243 342 l 25
 203 167 l 25
 229 167 l 25
 263 196 l 25
79 104 m 25
 39 167 l 25
 79 342 l 25
 149 405 l 25
 203 405 l 25
 236 550 l 25
 291 550 l 25
 258 405 l 25
 312 405 l 25
 352 342 l 25
 312 167 l 25
 242 104 l 25
 188 104 l 25
 161 -13 l 25
 106 -13 l 25
 133 104 l 25
 79 104 l 25
EndSplineSet
Validated: 1
EndChar

StartChar: uni0446
Encoding: 230 1094 152
Width: 375
Flags: HW
LayerCount: 2
Fore
SplineSet
98 425 m 25xe8
 153 425 l 25
 96 175 l 25
 256 175 l 25
 314 425 l 25
 369 425 l 25
 312 175 l 25xf0
 368 175 l 25
 324 -13 l 25
 268 -13 l 25
 297 112 l 25
 26 112 l 25
 98 425 l 25xe8
EndSplineSet
Validated: 1
EndChar

StartChar: uni0447
Encoding: 231 1095 153
Width: 375
Flags: HW
LayerCount: 2
Fore
SplineSet
98 425 m 25
 153 425 l 25
 132 331 l 25
 151 300 l 25
 258 300 l 25
 292 331 l 25
 314 425 l 25
 369 425 l 25
 297 112 l 1
 242 112 l 1
 277 268 l 25
 243 237 l 25
 110 237 l 25
 69 300 l 25
 98 425 l 25
EndSplineSet
Validated: 1
EndChar

StartChar: uni0448
Encoding: 232 1096 154
Width: 375
Flags: HW
CounterMasks: 1 38
LayerCount: 2
Fore
SplineSet
98 425 m 29
 153 425 l 29
 96 175 l 1
 149 175 l 1
 207 425 l 29
 262 425 l 29
 205 175 l 1
 259 175 l 1
 316 425 l 29
 371 425 l 29
 299 112 l 1
 26 112 l 1
 98 425 l 29
EndSplineSet
Validated: 1
EndChar

StartChar: uni0449
Encoding: 233 1097 155
Width: 375
Flags: HW
LayerCount: 2
Fore
SplineSet
98 425 m 25xf4
 153 425 l 25
 96 175 l 1
 149 175 l 1
 207 425 l 25
 262 425 l 25
 205 175 l 1
 259 175 l 1
 316 425 l 25
 371 425 l 17
 314 175 l 1xf8
 370 175 l 1
 326 -13 l 1
 270 -13 l 1
 299 112 l 9
 26 112 l 1
 98 425 l 25xf4
EndSplineSet
Validated: 1
EndChar

StartChar: uni044A
Encoding: 234 1098 156
Width: 375
Flags: HW
CounterMasks: 1 e0
LayerCount: 2
Fore
SplineSet
243 227 m 25xe8
 164 227 l 25
 152 175 l 25
 231 175 l 25
 265 201 l 25
 243 227 l 25xe8
93 405 m 25xf0
 205 405 l 25xf0
 178 290 l 25
 285 290 l 25
 324 227 l 25
 312 175 l 25
 244 112 l 25
 81 112 l 25
 134 342 l 25xe8
 79 342 l 25
 93 405 l 25xf0
EndSplineSet
Validated: 1
EndChar

StartChar: uni044B
Encoding: 235 1099 157
Width: 375
Flags: HW
LayerCount: 2
Fore
SplineSet
314 425 m 25
 369 425 l 25
 297 112 l 25
 242 112 l 25
 314 425 l 25
136 237 m 25
 110 237 l 25
 96 175 l 25
 122 175 l 25
 157 206 l 25
 136 237 l 25
153 425 m 25
 124 300 l 25
 178 300 l 25
 217 237 l 25
 202 175 l 25
 135 112 l 25
 26 112 l 25
 98 425 l 25
 153 425 l 25
EndSplineSet
Validated: 1
EndChar

StartChar: uni044C
Encoding: 236 1100 158
Width: 375
Flags: HW
LayerCount: 2
Fore
SplineSet
243 237 m 25
 110 237 l 25
 96 175 l 25
 229 175 l 25
 263 206 l 25
 243 237 l 25
153 425 m 25
 124 300 l 25
 285 300 l 25
 324 237 l 25
 309 175 l 25
 242 112 l 25
 26 112 l 25
 98 425 l 25
 153 425 l 25
EndSplineSet
Validated: 1
EndChar

StartChar: uni044D
Encoding: 237 1101 159
Width: 375
Flags: HW
CounterMasks: 1 e0
LayerCount: 2
Fore
SplineSet
268 227 m 25
 161 227 l 25
 176 290 l 25
 283 290 l 25
 289 316 l 25
 267 342 l 25
 161 342 l 25
 128 316 l 25
 122 290 l 25
 67 290 l 25
 79 342 l 25
 149 405 l 25
 309 405 l 25
 350 342 l 25
 312 175 l 25
 242 112 l 25
 81 112 l 25
 40 175 l 25
 52 227 l 25
 108 227 l 25
 102 201 l 25
 122 175 l 25
 229 175 l 25
 262 201 l 25
 268 227 l 25
EndSplineSet
Validated: 1
EndChar

StartChar: uni044E
Encoding: 238 1102 160
Width: 375
Flags: HW
CounterMasks: 1 1c
LayerCount: 2
Fore
SplineSet
274 362 m 25
 241 331 l 25
 212 206 l 25
 231 175 l 25
 266 206 l 25
 295 331 l 25
 274 362 l 25
98 425 m 25
 153 425 l 25
 124 300 l 25
 178 300 l 25
 193 362 l 25
 262 425 l 25
 316 425 l 25
 357 362 l 25
 314 175 l 25
 244 112 l 25
 190 112 l 25
 149 175 l 25
 164 237 l 25
 110 237 l 25
 80 120 l 25
 28 120 l 25
 98 425 l 25
EndSplineSet
Validated: 1
EndChar

StartChar: uni044F
Encoding: 239 1103 161
Width: 375
Flags: HW
LayerCount: 2
Fore
SplineSet
126 314 m 25
 147 286 l 25
 280 286 l 25
 293 342 l 25
 159 342 l 25
 126 314 l 25
362 405 m 25
 295 112 l 25
 240 112 l 25
 259 196 l 25
 79 112 l 25
 26 112 l 25
 32 140 l 25
 211 223 l 25
 105 223 l 25
 66 286 l 25
 79 342 l 25
 146 405 l 25
 362 405 l 25
EndSplineSet
Validated: 1
EndChar

StartChar: uni2116
Encoding: 240 8470 162
Width: 375
Flags: HW
LayerCount: 2
Fore
SplineSet
439 643 m 25
 381 643 l 25
 331 425 l 25
 388 425 l 25
 439 643 l 25
286 362 m 25
 403 362 l 25
 395 331 l 25
 279 331 l 25
 286 362 l 25
388 675 m 25
 446 675 l 25
 467 643 l 25
 417 425 l 25
 381 393 l 25
 323 393 l 25
 301 425 l 25
 351 643 l 25
 388 675 l 25
156 675 m 25
 213 675 l 25
 207 393 l 25
 272 675 l 25
 330 675 l 25
 200 112 l 25
 142 112 l 25
 148 393 l 25
 84 112 l 25
 26 112 l 25
 156 675 l 25
EndSplineSet
Validated: 1
EndChar

StartChar: uni0406
Encoding: 166 1030 163
Width: 375
Flags: HW
LayerCount: 2
Fore
SplineSet
255 612 m 25
 313 612 l 25
 197 112 l 25
 140 112 l 25
 255 612 l 25
EndSplineSet
Validated: 1
EndChar

StartChar: uni0456
Encoding: 246 1110 164
Width: 375
Flags: HW
LayerCount: 2
Fore
SplineSet
206 425 m 29
 261 425 l 25
 189 112 l 25
 134 112 l 25
 206 425 l 29
264 675 m 25
 319 675 l 25
 305 612 l 25
 249 612 l 25
 264 675 l 25
EndSplineSet
Validated: 1
EndChar

StartChar: uni0408
Encoding: 168 1032 165
Width: 375
Flags: HW
LayerCount: 2
Fore
SplineSet
388 675 m 29
 446 675 l 25
 331 175 l 25
 258 112 l 25
 84 112 l 25
 40 175 l 25
 69 300 l 25
 127 300 l 25
 105 206 l 25
 127 175 l 25
 243 175 l 25
 280 206 l 25
 388 675 l 29
EndSplineSet
Validated: 1
EndChar

StartChar: uni0407
Encoding: 167 1031 166
Width: 375
Flags: HW
LayerCount: 2
Fore
SplineSet
357 800 m 25xc8
 416 800 l 25
 401 737 l 25
 343 737 l 25
 357 800 l 25xc8
241 800 m 25xe0
 300 800 l 25
 285 737 l 25
 227 737 l 25
 241 800 l 25xe0
256 612 m 25xd0
 314 612 l 25
 199 112 l 25
 141 112 l 25
 256 612 l 25xd0
EndSplineSet
Validated: 1
EndChar

StartChar: uni0404
Encoding: 164 1028 167
Width: 375
Flags: HW
CounterMasks: 1 e0
LayerCount: 2
Fore
SplineSet
141 362 m 25
 105 206 l 25
 127 175 l 25
 243 175 l 25
 280 206 l 25
 302 300 l 25
 359 300 l 25
 331 175 l 25
 258 112 l 25
 84 112 l 25
 40 175 l 25
 141 612 l 25
 213 675 l 25
 388 675 l 25
 431 612 l 25
 403 487 l 25
 345 487 l 25
 367 581 l 25
 344 612 l 25
 228 612 l 25
 192 581 l 25
 156 425 l 25
 272 425 l 25
 257 362 l 25
 141 362 l 25
EndSplineSet
Validated: 1
EndChar

StartChar: uni00AD
Encoding: 173 173 168
Width: 375
Flags: HW
LayerCount: 2
Fore
SplineSet
55 237 m 5
 69 300 l 5
 359 300 l 5
 345 237 l 5
 55 237 l 5
EndSplineSet
Validated: 1
EndChar

StartChar: uni0458
Encoding: 248 1112 169
Width: 375
Flags: HW
LayerCount: 2
Fore
SplineSet
207 425 m 25
 262 425 l 25
 147 -75 l 1
 77 -138 l 1
 23 -138 l 5
 -17 -75 l 1
 12 50 l 1
 67 50 l 1
 45 -44 l 1
 64 -75 l 1
 99 -44 l 1
 207 425 l 25
265 675 m 25
 320 675 l 25
 306 612 l 25
 250 612 l 25
 265 675 l 25
EndSplineSet
Validated: 1
EndChar

StartChar: uni0457
Encoding: 247 1111 170
Width: 375
Flags: HW
LayerCount: 2
Fore
SplineSet
321 675 m 25xe4
 377 675 l 25
 362 612 l 25
 306 612 l 25
 321 675 l 25xe4
208 425 m 25xe8
 263 425 l 25
 191 112 l 25
 136 112 l 25
 208 425 l 25xe8
209 675 m 25xf0
 266 675 l 25
 251 612 l 25
 195 612 l 25
 209 675 l 25xf0
EndSplineSet
Validated: 1
EndChar

StartChar: uni0454
Encoding: 244 1108 171
Width: 375
Flags: HW
CounterMasks: 1 e0
LayerCount: 2
Fore
SplineSet
108 227 m 25
 102 201 l 25
 122 175 l 25
 229 175 l 25
 262 201 l 25
 268 227 l 25
 323 227 l 25
 312 175 l 25
 242 112 l 25
 81 112 l 25
 40 175 l 25
 79 342 l 25
 149 405 l 25
 309 405 l 25
 350 342 l 25
 338 290 l 25
 283 290 l 25
 289 316 l 25
 267 342 l 25
 161 342 l 25
 128 316 l 25
 122 290 l 25
 229 290 l 25
 214 227 l 25
 108 227 l 25
EndSplineSet
Validated: 1
EndChar
